<?xml version="1.0" encoding="utf-8"?>
<!-- Generator: Adobe Illustrator 19.1.0, SVG Export Plug-In . SVG Version: 6.00 Build 0)  -->
<!DOCTYPE svg PUBLIC "-//W3C//DTD SVG 1.1//EN" "http://www.w3.org/Graphics/SVG/1.1/DTD/svg11.dtd">
<svg version="1.1" id="object" xmlns="http://www.w3.org/2000/svg" xmlns:xlink="http://www.w3.org/1999/xlink" x="0px" y="0px"
	 viewBox="0 0 258.3 154.9" enable-background="new 0 0 258.3 154.9" xml:space="preserve">
<g>
	<path fill="#231F20" d="M73.3,134.1c0,0,8.6,19.1,12,20.5c3.4,1.4,11.4-3.8,11.4-3.8l-9.1-16.2L73.3,134.1z"/>
	<path fill="#231F20" d="M74,20.6c0,0,8.8-19,12.3-20.4c3.4-1.4,11.3,4,11.3,4l-9.3,16L74,20.6z"/>
	<g>
		<path fill="#808083" d="M5.1,106.5c-7-17.6-6.8-41.6,0.4-59.1c7.2-17.5,15.4-30,43.7-29c28.3,1,143.5,2.2,173.1,2.5
			C252,21.2,259,54,259,54l-0.3,49c0,0-7.4,32.8-37,32.7c-29.6-0.1-144.9-0.3-173.2,0.3C20.2,136.7,12.1,124,5.1,106.5z"/>
		<polygon fill="#231F20" points="114.7,124.1 186,123 214.7,133.4 79.8,133.1 		"/>
		
		<path fill="#231F20" d="M112.3,120.8c-1-5.8-1.9-26.1-2.7-43.2c-0.9-17.1,2.3-37.4,3.3-43.2c0,0-29.2-7.5-38-9.7
			C64.6,48.1,62.3,62.6,62.5,78.4c0.2,15.8,1.7,27.9,11.7,51.7C82.9,127.9,112.3,120.8,112.3,120.8z"/>

		<path fill="#231F20" d="M187.7,120.1c3-10.8,5.8-24.6,6.7-42.1c0.9-17.4-5.2-38.3-6.2-42c8.7-2.3,8.7-2.4,29-9.9
			c0,0,5.8,30.9,6,52.2c0.1,21.3-6.6,52-6.6,52C196.4,122.6,196.4,122.5,187.7,120.1z"/>
		<g>
			<defs>
				<path id="SVGID_1_" d="M5.1,106.5c7,17.6,15.1,30.2,43.4,29.6c28.3-0.6,143.5-0.4,173.2-0.3c29.6,0.1,37-32.7,37-32.7l-0.4-24.6
					L0,76.9C0,76.9-1.9,88.9,5.1,106.5z"/>
			</defs>
			<clipPath id="SVGID_2_">
				<use xlink:href="#SVGID_1_"  overflow="visible"/>
			</clipPath>
			<path clip-path="url(#SVGID_2_)" fill="#FDBB16" d="M2.6,110.1l0.3,0.2c0,0,28,12.4,46.1,28.4c-2.8,4.7-22.1,0.2-31.7-5.1
				C7.6,128.3,2.6,110.1,2.6,110.1z"/>
		</g>
	</g>
	<g>
		<polygon fill="#231F20" points="115.3,31.1 186.6,33.2 215.4,23.1 80.5,21.7"/>
		<g>
			<defs>
				<path id="SVGID_3_" d="M5.5,47.4c7.2-17.5,15.4-30,43.7-29c28.3,1,143.5,2.2,173.1,2.5C252,21.2,259,54,259,54l-0.7,24.6L0,76.9
					C0,76.9-1.7,64.8,5.5,47.4z"/>
			</defs>
			<clipPath id="SVGID_4_">
				<use xlink:href="#SVGID_3_"  overflow="visible"/>
			</clipPath>
			<path clip-path="url(#SVGID_4_)" fill="#FDBB16" d="M3,43.8l0.3-0.2c0,0,28.2-12,46.5-27.9C47,11,27.7,15.2,18,20.4
				C8.3,25.6,3,43.8,3,43.8z"/>
		</g>
	</g>
</g>
</svg>
